# xmcd CD database file
#
# Track frame offsets:
#	150
#	14479
#	24755
#	31785
#	37898
#	46910
#	59829
#	70358
#	77276
#	87255
#	94565
#	103207
#	111309
#	120235
#	135550
#	144816
#	164090
#	175049
#	184897
#	192956
#	203914
#	221117
#	232568
#	241413
#	268388
#
# Disc length: 3735 seconds
#
# Revision: 3
# Processed by: cddbd v1.5.2PL0 Copyright (c) Steve Scherf et al.
# Submitted via: CDex 1.51
#
DISCID=520e9519
DTITLE=Steward - Goodbye to Everything You Love
DYEAR=1999
DGENRE=Indiepop
TTITLE0=Can't force the hand
TTITLE1=Loverboy
TTITLE2=Backpedal
TTITLE3=I would see you right
TTITLE4=Townpath legacy Pt. 2
TTITLE5=An upaid debt
TTITLE6=Bit part actor come good
TTITLE7=Where are our ambitions?
TTITLE8=Waste
TTITLE9=The days run thru our fingers
TTITLE10=Compassion is found in the strangest of places
TTITLE11=Low blood sugar
TTITLE12=Cindy two
TTITLE13=I spent my money too quickly
TTITLE14=3.99
TTITLE15=Conserve, Consider, Create!
TTITLE16=This land is nervous
TTITLE17=M.E.T. 2
TTITLE18=Fly guy
TTITLE19=Hamfisted, chromatic
TTITLE20=The last wasps of summer (Downpour remix)
TTITLE21=Concentration/Break
TTITLE22=I stir w/ such good intentions
TTITLE23=Denied by Circumstance
TTITLE24=Untitled track
EXTD=YEAR: 1999
EXTT0=
EXTT1=
EXTT2=
EXTT3=
EXTT4=
EXTT5=
EXTT6=
EXTT7=
EXTT8=
EXTT9=
EXTT10=
EXTT11=
EXTT12=
EXTT13=
EXTT14=
EXTT15=
EXTT16=
EXTT17=
EXTT18=
EXTT19=
EXTT20=
EXTT21=
EXTT22=
EXTT23=
EXTT24=
PLAYORDER=
